<svg id="Logo" xmlns="http://www.w3.org/2000/svg" width="351" height="350" viewBox="0 0 351 350">
  <defs>
    <style>
      .cls-1 {
        fill: #fff;
        fill-rule: evenodd;
      }
    </style>
  </defs>
  <path id="Ellipse_2_copy" data-name="Ellipse 2 copy" class="cls-1" d="M175,0A175,175,0,1,1,0,175,175,175,0,0,1,175,0Zm0,15A160,160,0,1,1,15,175,160,160,0,0,1,175,15ZM306.679,153.571a3.563,3.563,0,0,0-2.52-1.02h-11.52v-19.44a3.263,3.263,0,0,0-1.08-2.46,3.563,3.563,0,0,0-2.52-1.02,3.483,3.483,0,0,0-3.48,3.48v19.44h-11.64a3.357,3.357,0,0,0-2.46,1.02,3.5,3.5,0,0,0-1.02,2.58,3.483,3.483,0,0,0,3.48,3.48h11.64v47.64a3.483,3.483,0,0,0,3.48,3.48,3.55,3.55,0,0,0,2.52-1.02,3.259,3.259,0,0,0,1.08-2.46v-47.64h11.52a3.55,3.55,0,0,0,2.52-1.02,3.259,3.259,0,0,0,1.08-2.46A3.4,3.4,0,0,0,306.679,153.571Zm24.8-153.7,21.9,22.087-97.105,97.921-21.9-22.087ZM283.5,40a7.5,7.5,0,1,1-7.5,7.5A7.5,7.5,0,0,1,283.5,40Zm22,23a7.5,7.5,0,1,1-7.5,7.5A7.5,7.5,0,0,1,305.5,63Zm-53.121,68.791a5.6,5.6,0,0,0-7.5,0,4.832,4.832,0,0,0-1.56,3.72,5.28,5.28,0,0,0,10.56,0A4.934,4.934,0,0,0,252.379,131.791Zm-0.18,24.24a3.263,3.263,0,0,0-1.08-2.46,3.563,3.563,0,0,0-2.52-1.02,3.483,3.483,0,0,0-3.48,3.48v51.24a3.483,3.483,0,0,0,3.48,3.48,3.55,3.55,0,0,0,2.52-1.02,3.259,3.259,0,0,0,1.08-2.46v-51.24Zm-30,14.34a29.141,29.141,0,0,0-15.48-15.54,28.191,28.191,0,0,0-11.28-2.28,28.629,28.629,0,0,0-22.08,10.2l-0.6-39.6a3.48,3.48,0,0,0-6.96,0l0.48,84.12a3.345,3.345,0,0,0,1.02,2.46,3.488,3.488,0,0,0,2.58,1.02,3.483,3.483,0,0,0,3.48-3.48v-6.72a28.629,28.629,0,0,0,22.08,10.2,28.14,28.14,0,0,0,11.28-2.28,29.3,29.3,0,0,0,15.48-15.48,28.17,28.17,0,0,0,2.28-11.28A28.617,28.617,0,0,0,222.2,170.371Zm-6.54,19.92a21.816,21.816,0,0,1-11.64,11.64,22.024,22.024,0,0,1-17.16,0,22.826,22.826,0,0,1-7.02-4.68,21.619,21.619,0,0,1-4.74-6.96,22.024,22.024,0,0,1,0-17.16,22.252,22.252,0,0,1,11.76-11.76,22.024,22.024,0,0,1,17.16,0,21.781,21.781,0,0,1,6.96,4.74,23.006,23.006,0,0,1,4.68,7.02A22.024,22.024,0,0,1,215.66,190.291Zm-89.819-20.124a9.206,9.206,0,0,1,.78-3.711,12.407,12.407,0,0,1,2.1-3.292,11.3,11.3,0,0,1,3.06-2.455,8.652,8.652,0,0,1,3.66-1.078,6.271,6.271,0,0,1,4.5.958,9.884,9.884,0,0,1,2.4,2.762q0.9,1.561,1.8,2.88a3.046,3.046,0,0,0,2.7,1.32,3.106,3.106,0,0,0,2.94-1.62,3.852,3.852,0,0,0,.3-3.3,16.249,16.249,0,0,0-5.1-7.517,13.8,13.8,0,0,0-8.7-2.563,11.356,11.356,0,0,0-6.12,1.892,11.191,11.191,0,0,0-4.32,4.7v-3.053a3.444,3.444,0,0,0-1.02-2.5,3.326,3.326,0,0,0-2.46-1.039,3.5,3.5,0,0,0-2.58,1.02,3.35,3.35,0,0,0-1.02,2.46v51.24a3.345,3.345,0,0,0,1.02,2.46,3.49,3.49,0,0,0,2.58,1.02,3.09,3.09,0,0,0,2.64-1.316,3.506,3.506,0,0,0,.84-2.156V170.167ZM44,192.991a29.141,29.141,0,0,0,15.54,15.48,28.55,28.55,0,0,0,11.34,2.28,28.136,28.136,0,0,0,11.28-2.28,29.3,29.3,0,0,0,15.48-15.48,28.157,28.157,0,0,0,2.28-11.28,28.6,28.6,0,0,0-2.28-11.34,29.141,29.141,0,0,0-15.48-15.54,28.187,28.187,0,0,0-11.28-2.28,28.6,28.6,0,0,0-11.34,2.28A28.984,28.984,0,0,0,44,170.371a28.572,28.572,0,0,0-2.28,11.34A28.126,28.126,0,0,0,44,192.991Zm6.54-19.86a22.252,22.252,0,0,1,11.76-11.76,22.024,22.024,0,0,1,17.16,0,21.768,21.768,0,0,1,6.96,4.74,22.992,22.992,0,0,1,4.68,7.02,22.024,22.024,0,0,1,0,17.16,21.816,21.816,0,0,1-11.64,11.64,22.024,22.024,0,0,1-17.16,0,22.846,22.846,0,0,1-7.02-4.68,21.638,21.638,0,0,1-4.74-6.96A22.024,22.024,0,0,1,50.542,173.131Z"/>
</svg>
